<mxfile host="Electron" modified="2023-08-25T03:30:45.974Z" agent="Mozilla/5.0 (Macintosh; Intel Mac OS X 10_15_7) AppleWebKit/537.36 (KHTML, like Gecko) draw.io/21.2.8 Chrome/112.0.5615.165 Electron/24.2.0 Safari/537.36" etag="C8AuYi-eHJKNCNvHg7c1" version="21.2.8" type="device">
  <diagram name="Page-1" id="mQ5jo2GKc0BcLItz1h-8">
    <mxGraphModel dx="977" dy="654" grid="1" gridSize="10" guides="1" tooltips="1" connect="1" arrows="1" fold="1" page="1" pageScale="1" pageWidth="850" pageHeight="1100" math="0" shadow="0">
      <root>
        <mxCell id="0" />
        <mxCell id="1" parent="0" />
        <mxCell id="5M_DOymnlada10cuIHT1-1" value="RegularExpression" style="swimlane;fontStyle=3;childLayout=stackLayout;horizontal=1;startSize=30;fillColor=none;horizontalStack=0;resizeParent=1;resizeParentMax=0;resizeLast=0;collapsible=0;marginBottom=0;fontSize=12;swimlaneHead=1;swimlaneBody=1;connectable=1;allowArrows=1;dropTarget=1;align=left;spacingLeft=5;" vertex="1" parent="1">
          <mxGeometry x="370" y="90" width="122" height="60" as="geometry">
            <mxRectangle x="245" y="370" width="90" height="26" as="alternateBounds" />
          </mxGeometry>
        </mxCell>
        <mxCell id="5M_DOymnlada10cuIHT1-2" value="Interpreter()" style="text;strokeColor=none;fillColor=none;align=left;verticalAlign=middle;spacingLeft=5;spacingRight=4;overflow=hidden;rotatable=0;points=[[0,0.5],[1,0.5]];portConstraint=eastwest;fontSize=12;fontStyle=2;connectable=0;" vertex="1" parent="5M_DOymnlada10cuIHT1-1">
          <mxGeometry y="30" width="122" height="30" as="geometry" />
        </mxCell>
        <mxCell id="5M_DOymnlada10cuIHT1-3" value="&lt;span style=&quot;font-weight: 700;&quot;&gt;LiteralExpression&lt;/span&gt;" style="swimlane;fontStyle=0;align=left;verticalAlign=top;childLayout=stackLayout;horizontal=1;startSize=30;horizontalStack=0;resizeParent=1;resizeParentMax=0;resizeLast=0;collapsible=0;marginBottom=0;html=1;spacingLeft=5;" vertex="1" parent="1">
          <mxGeometry x="220" y="210" width="159" height="91" as="geometry" />
        </mxCell>
        <mxCell id="5M_DOymnlada10cuIHT1-4" value="Interpreter()" style="text;strokeColor=none;fillColor=none;align=left;verticalAlign=middle;spacingLeft=5;spacingRight=4;overflow=hidden;rotatable=0;points=[[0,0.5],[1,0.5]];portConstraint=eastwest;fontSize=12;fontStyle=0;connectable=0;allowArrows=0;" vertex="1" parent="5M_DOymnlada10cuIHT1-3">
          <mxGeometry y="30" width="159" height="30" as="geometry" />
        </mxCell>
        <mxCell id="5M_DOymnlada10cuIHT1-5" value="" style="line;strokeWidth=1;fillColor=none;align=left;verticalAlign=middle;spacingTop=-1;spacingLeft=3;spacingRight=3;rotatable=0;labelPosition=right;points=[];portConstraint=eastwest;" vertex="1" parent="5M_DOymnlada10cuIHT1-3">
          <mxGeometry y="60" width="159" height="1" as="geometry" />
        </mxCell>
        <mxCell id="5M_DOymnlada10cuIHT1-6" value="literal" style="text;strokeColor=none;fillColor=none;align=left;verticalAlign=middle;spacingLeft=5;spacingRight=4;overflow=hidden;rotatable=0;points=[[0,0.5],[1,0.5]];portConstraint=eastwest;fontSize=12;fontStyle=0;connectable=1;allowArrows=0;" vertex="1" parent="5M_DOymnlada10cuIHT1-3">
          <mxGeometry y="61" width="159" height="30" as="geometry" />
        </mxCell>
        <mxCell id="5M_DOymnlada10cuIHT1-7" value="&lt;span style=&quot;font-weight: 700;&quot;&gt;SequenceExpression&lt;/span&gt;" style="swimlane;fontStyle=0;align=left;verticalAlign=top;childLayout=stackLayout;horizontal=1;startSize=30;horizontalStack=0;resizeParent=1;resizeParentMax=0;resizeLast=0;collapsible=0;marginBottom=0;html=1;spacingLeft=5;" vertex="1" parent="1">
          <mxGeometry x="470" y="210" width="159" height="60" as="geometry" />
        </mxCell>
        <mxCell id="5M_DOymnlada10cuIHT1-8" value="Interpreter()" style="text;strokeColor=none;fillColor=none;align=left;verticalAlign=middle;spacingLeft=5;spacingRight=4;overflow=hidden;rotatable=0;points=[[0,0.5],[1,0.5]];portConstraint=eastwest;fontSize=12;fontStyle=0;connectable=0;allowArrows=0;" vertex="1" parent="5M_DOymnlada10cuIHT1-7">
          <mxGeometry y="30" width="159" height="30" as="geometry" />
        </mxCell>
        <mxCell id="5M_DOymnlada10cuIHT1-11" value="" style="rounded=0;orthogonalLoop=1;jettySize=auto;html=1;fontSize=12;startSize=8;endArrow=blockThin;endFill=1;startArrow=diamondThin;startFill=0;exitX=0;exitY=0.25;exitDx=0;exitDy=0;entryX=0;entryY=0.25;entryDx=0;entryDy=0;edgeStyle=orthogonalEdgeStyle;" edge="1" target="5M_DOymnlada10cuIHT1-1" parent="1" source="5M_DOymnlada10cuIHT1-13">
          <mxGeometry relative="1" as="geometry">
            <mxPoint x="60" y="310" as="sourcePoint" />
            <mxPoint x="280" y="130" as="targetPoint" />
            <Array as="points">
              <mxPoint x="80" y="352" />
              <mxPoint x="80" y="105" />
            </Array>
          </mxGeometry>
        </mxCell>
        <mxCell id="5M_DOymnlada10cuIHT1-32" value="repetittion" style="edgeLabel;html=1;align=center;verticalAlign=middle;resizable=0;points=[];" vertex="1" connectable="0" parent="5M_DOymnlada10cuIHT1-11">
          <mxGeometry x="-0.871" y="-1" relative="1" as="geometry">
            <mxPoint x="8" y="-10" as="offset" />
          </mxGeometry>
        </mxCell>
        <mxCell id="5M_DOymnlada10cuIHT1-13" value="&lt;span style=&quot;font-weight: 700;&quot;&gt;RepetitionExpression&lt;/span&gt;" style="swimlane;fontStyle=0;align=left;verticalAlign=top;childLayout=stackLayout;horizontal=1;startSize=30;horizontalStack=0;resizeParent=1;resizeParentMax=0;resizeLast=0;collapsible=0;marginBottom=0;html=1;spacingLeft=5;" vertex="1" parent="1">
          <mxGeometry x="140" y="337" width="159" height="60" as="geometry" />
        </mxCell>
        <mxCell id="5M_DOymnlada10cuIHT1-14" value="Interpreter()" style="text;strokeColor=none;fillColor=none;align=left;verticalAlign=middle;spacingLeft=5;spacingRight=4;overflow=hidden;rotatable=0;points=[[0,0.5],[1,0.5]];portConstraint=eastwest;fontSize=12;fontStyle=0;connectable=0;allowArrows=0;" vertex="1" parent="5M_DOymnlada10cuIHT1-13">
          <mxGeometry y="30" width="159" height="30" as="geometry" />
        </mxCell>
        <mxCell id="5M_DOymnlada10cuIHT1-15" value="&lt;b&gt;AlternationExpression&lt;/b&gt;" style="swimlane;fontStyle=0;align=left;verticalAlign=top;childLayout=stackLayout;horizontal=1;startSize=30;horizontalStack=0;resizeParent=1;resizeParentMax=0;resizeLast=0;collapsible=0;marginBottom=0;html=1;spacingLeft=5;" vertex="1" parent="1">
          <mxGeometry x="370" y="340" width="159" height="60" as="geometry" />
        </mxCell>
        <mxCell id="5M_DOymnlada10cuIHT1-16" value="Interpreter()" style="text;strokeColor=none;fillColor=none;align=left;verticalAlign=middle;spacingLeft=5;spacingRight=4;overflow=hidden;rotatable=0;points=[[0,0.5],[1,0.5]];portConstraint=eastwest;fontSize=12;fontStyle=0;connectable=0;allowArrows=0;" vertex="1" parent="5M_DOymnlada10cuIHT1-15">
          <mxGeometry y="30" width="159" height="30" as="geometry" />
        </mxCell>
        <mxCell id="5M_DOymnlada10cuIHT1-17" value="" style="edgeStyle=orthogonalEdgeStyle;rounded=0;orthogonalLoop=1;jettySize=auto;html=1;fontSize=12;startSize=30;endArrow=block;endFill=0;exitX=0.5;exitY=0;exitDx=0;exitDy=0;entryX=0.5;entryY=1;entryDx=0;entryDy=0;" edge="1" parent="1" source="5M_DOymnlada10cuIHT1-3" target="5M_DOymnlada10cuIHT1-1">
          <mxGeometry relative="1" as="geometry">
            <mxPoint x="590" y="184" as="sourcePoint" />
            <mxPoint x="590" y="150" as="targetPoint" />
          </mxGeometry>
        </mxCell>
        <mxCell id="5M_DOymnlada10cuIHT1-18" value="" style="edgeStyle=orthogonalEdgeStyle;rounded=0;orthogonalLoop=1;jettySize=auto;html=1;fontSize=12;startSize=30;endArrow=block;endFill=0;exitX=0.5;exitY=0;exitDx=0;exitDy=0;entryX=0.5;entryY=1;entryDx=0;entryDy=0;" edge="1" parent="1" source="5M_DOymnlada10cuIHT1-7" target="5M_DOymnlada10cuIHT1-1">
          <mxGeometry relative="1" as="geometry">
            <mxPoint x="310" y="215" as="sourcePoint" />
            <mxPoint x="430" y="150" as="targetPoint" />
          </mxGeometry>
        </mxCell>
        <mxCell id="5M_DOymnlada10cuIHT1-19" value="" style="edgeStyle=orthogonalEdgeStyle;rounded=0;orthogonalLoop=1;jettySize=auto;html=1;fontSize=12;startSize=30;endArrow=block;endFill=0;exitX=0.25;exitY=0;exitDx=0;exitDy=0;entryX=0.5;entryY=1;entryDx=0;entryDy=0;" edge="1" parent="1" source="5M_DOymnlada10cuIHT1-13" target="5M_DOymnlada10cuIHT1-1">
          <mxGeometry relative="1" as="geometry">
            <mxPoint x="310" y="215" as="sourcePoint" />
            <mxPoint x="441" y="160" as="targetPoint" />
            <Array as="points">
              <mxPoint x="180" y="180" />
              <mxPoint x="431" y="180" />
            </Array>
          </mxGeometry>
        </mxCell>
        <mxCell id="5M_DOymnlada10cuIHT1-20" value="" style="rounded=0;orthogonalLoop=1;jettySize=auto;html=1;fontSize=12;startSize=30;endArrow=block;endFill=0;exitX=0.5;exitY=0;exitDx=0;exitDy=0;entryX=0.5;entryY=1;entryDx=0;entryDy=0;edgeStyle=orthogonalEdgeStyle;" edge="1" parent="1" source="5M_DOymnlada10cuIHT1-15" target="5M_DOymnlada10cuIHT1-1">
          <mxGeometry relative="1" as="geometry">
            <mxPoint x="190" y="350" as="sourcePoint" />
            <mxPoint x="441" y="160" as="targetPoint" />
            <Array as="points">
              <mxPoint x="449" y="180" />
              <mxPoint x="431" y="180" />
            </Array>
          </mxGeometry>
        </mxCell>
        <mxCell id="5M_DOymnlada10cuIHT1-22" value="" style="rounded=0;orthogonalLoop=1;jettySize=auto;html=1;fontSize=12;startSize=8;endArrow=blockThin;endFill=1;startArrow=diamondThin;startFill=0;exitX=1;exitY=0.25;exitDx=0;exitDy=0;entryX=1;entryY=0.75;entryDx=0;entryDy=0;edgeStyle=orthogonalEdgeStyle;" edge="1" parent="1" source="5M_DOymnlada10cuIHT1-7" target="5M_DOymnlada10cuIHT1-1">
          <mxGeometry relative="1" as="geometry">
            <mxPoint x="150" y="362" as="sourcePoint" />
            <mxPoint x="380" y="115" as="targetPoint" />
            <Array as="points">
              <mxPoint x="690" y="225" />
              <mxPoint x="690" y="135" />
            </Array>
          </mxGeometry>
        </mxCell>
        <mxCell id="5M_DOymnlada10cuIHT1-26" value="expression1" style="edgeLabel;html=1;align=center;verticalAlign=middle;resizable=0;points=[];fontSize=8;" vertex="1" connectable="0" parent="5M_DOymnlada10cuIHT1-22">
          <mxGeometry x="-0.9043" y="1" relative="1" as="geometry">
            <mxPoint x="14" y="-6" as="offset" />
          </mxGeometry>
        </mxCell>
        <mxCell id="5M_DOymnlada10cuIHT1-25" value="" style="rounded=0;orthogonalLoop=1;jettySize=auto;html=1;fontSize=12;startSize=8;endArrow=blockThin;endFill=1;startArrow=diamondThin;startFill=0;entryX=1.005;entryY=0.569;entryDx=0;entryDy=0;entryPerimeter=0;exitX=1;exitY=0.57;exitDx=0;exitDy=0;exitPerimeter=0;edgeStyle=orthogonalEdgeStyle;" edge="1" parent="1" source="5M_DOymnlada10cuIHT1-7" target="5M_DOymnlada10cuIHT1-1">
          <mxGeometry relative="1" as="geometry">
            <mxPoint x="637" y="245" as="sourcePoint" />
            <mxPoint x="500" y="110" as="targetPoint" />
            <Array as="points">
              <mxPoint x="700" y="244" />
              <mxPoint x="700" y="124" />
            </Array>
          </mxGeometry>
        </mxCell>
        <mxCell id="5M_DOymnlada10cuIHT1-27" value="expression2" style="edgeLabel;html=1;align=center;verticalAlign=middle;resizable=0;points=[];fontSize=8;" vertex="1" connectable="0" parent="5M_DOymnlada10cuIHT1-25">
          <mxGeometry x="-0.857" relative="1" as="geometry">
            <mxPoint x="2" y="-7" as="offset" />
          </mxGeometry>
        </mxCell>
        <mxCell id="5M_DOymnlada10cuIHT1-28" value="" style="rounded=0;orthogonalLoop=1;jettySize=auto;html=1;fontSize=12;startSize=8;endArrow=blockThin;endFill=1;startArrow=diamondThin;startFill=0;exitX=1;exitY=0.25;exitDx=0;exitDy=0;entryX=1.011;entryY=0.365;entryDx=0;entryDy=0;entryPerimeter=0;edgeStyle=orthogonalEdgeStyle;" edge="1" parent="1" source="5M_DOymnlada10cuIHT1-15" target="5M_DOymnlada10cuIHT1-1">
          <mxGeometry relative="1" as="geometry">
            <mxPoint x="639" y="235" as="sourcePoint" />
            <mxPoint x="502" y="145" as="targetPoint" />
            <Array as="points">
              <mxPoint x="720" y="355" />
              <mxPoint x="720" y="112" />
              <mxPoint x="493" y="112" />
            </Array>
          </mxGeometry>
        </mxCell>
        <mxCell id="5M_DOymnlada10cuIHT1-29" value="alternative1" style="edgeLabel;html=1;align=center;verticalAlign=middle;resizable=0;points=[];fontSize=8;" vertex="1" connectable="0" parent="5M_DOymnlada10cuIHT1-28">
          <mxGeometry x="-0.9043" y="1" relative="1" as="geometry">
            <mxPoint x="-1" y="-6" as="offset" />
          </mxGeometry>
        </mxCell>
        <mxCell id="5M_DOymnlada10cuIHT1-30" value="" style="rounded=0;orthogonalLoop=1;jettySize=auto;html=1;fontSize=12;startSize=8;endArrow=blockThin;endFill=1;startArrow=diamondThin;startFill=0;exitX=1;exitY=0.5;exitDx=0;exitDy=0;entryX=1.01;entryY=0.144;entryDx=0;entryDy=0;entryPerimeter=0;edgeStyle=orthogonalEdgeStyle;" edge="1" parent="1" source="5M_DOymnlada10cuIHT1-15" target="5M_DOymnlada10cuIHT1-1">
          <mxGeometry relative="1" as="geometry">
            <mxPoint x="539" y="365" as="sourcePoint" />
            <mxPoint x="503" y="122" as="targetPoint" />
            <Array as="points">
              <mxPoint x="730" y="370" />
              <mxPoint x="730" y="99" />
              <mxPoint x="493" y="99" />
            </Array>
          </mxGeometry>
        </mxCell>
        <mxCell id="5M_DOymnlada10cuIHT1-31" value="alternative2" style="edgeLabel;html=1;align=center;verticalAlign=middle;resizable=0;points=[];fontSize=8;" vertex="1" connectable="0" parent="5M_DOymnlada10cuIHT1-30">
          <mxGeometry x="-0.9043" y="1" relative="1" as="geometry">
            <mxPoint x="-3" y="-6" as="offset" />
          </mxGeometry>
        </mxCell>
      </root>
    </mxGraphModel>
  </diagram>
</mxfile>
